<?xml version="1.0" standalone="no"?>
<!DOCTYPE svg PUBLIC "-//W3C//DTD SVG 20010904//EN"
 "http://www.w3.org/TR/2001/REC-SVG-20010904/DTD/svg10.dtd">
<svg version="1.0" xmlns="http://www.w3.org/2000/svg"
 width="525.000000pt" height="525.000000pt" viewBox="0 0 525.000000 525.000000"
 preserveAspectRatio="xMidYMid meet">
<metadata>
Created by potrace 1.11, written by Peter Selinger 2001-2013
</metadata>
<g transform="translate(0.000000,525.000000) scale(0.100000,-0.100000)"
fill="#000000" stroke="none">
<path d="M2499 5246 c-2 -2 -35 -6 -74 -10 -62 -6 -94 -11 -182 -31 -93 -21
-240 -88 -367 -167 -354 -219 -643 -641 -749 -1093 -26 -110 -29 -127 -44
-240 -7 -57 -8 -542 -3 -1520 1 -236 2 -435 1 -441 -1 -8 -174 -259 -275 -399
-8 -11 -82 -114 -163 -230 l-149 -210 1069 -3 c588 -1 1547 -1 2132 0 l1063 3
-77 106 c-83 116 -90 126 -154 214 -24 33 -112 157 -197 275 -85 118 -157 217
-160 220 -26 19 -32 65 -36 239 -34 1890 -29 1740 -69 1943 -47 231 -138 452
-267 643 -70 105 -86 125 -171 215 -224 238 -552 415 -842 456 -16 3 -39 6
-50 9 -11 2 -65 7 -120 11 -55 3 -103 8 -106 10 -3 2 -8 2 -10 0z"/>
<path d="M1971 658 c1 -40 6 -86 10 -103 5 -16 11 -46 14 -65 10 -56 55 -161
96 -220 75 -111 180 -189 315 -236 71 -24 93 -27 214 -27 121 0 143 3 212 26
130 46 222 113 315 230 56 71 110 238 121 380 l8 87 -654 0 -653 0 2 -72z"/>
</g>
</svg>
