<?xml version="1.0" encoding="utf-8"?>
<!-- Generator: Adobe Illustrator 16.0.0, SVG Export Plug-In . SVG Version: 6.00 Build 0)  -->
<!DOCTYPE svg PUBLIC "-//W3C//DTD SVG 1.1//EN" "http://www.w3.org/Graphics/SVG/1.1/DTD/svg11.dtd">
<svg version="1.1" id="Layer_1" xmlns="http://www.w3.org/2000/svg" xmlns:xlink="http://www.w3.org/1999/xlink" x="0px" y="0px"
	 width="612px" height="792px" viewBox="0 0 612 792" enable-background="new 0 0 612 792" xml:space="preserve">
<g>
	<path fill-rule="evenodd" clip-rule="evenodd" d="M-4.511,647.138c1.733-3.097,5.306-5.457,12.408-10.236
		c46.733-31.443,93.397-62.979,140.091-94.477c17.573-11.854,35.084-23.795,52.792-35.466c4.034-2.659,5.681-5.553,5.596-10.292
		c-0.297-16.675-0.093-33.358-0.142-50.038c-0.006-2.104,0.651-4.394-2.693-5.409c-3.03-0.92-1.032-2.776,0.043-4.039
		c5.724-6.725,11.44-13.457,17.327-20.05c1.877-2.103,2.653-4.275,2.648-6.987c-0.05-30.152-0.036-60.304-0.018-90.456
		c0.001-2.678-1.427-3.827-3.5-5.749c-3.335-3.089-4.748-7.981-10.497-8.68c-0.324-0.04,0.133-3.7-0.51-3.949
		c-4.479-1.735-5.486-6.251-8.563-9.027c-0.102-0.091-0.368-0.007-0.484-0.093c-6.126-4.628-1.983-10.891-2.664-16.353
		c-0.475-3.813,3.354-3.432,5.899-3.215c5.743,0.491,11.643-1.468,17.287,1.356c1.935,0.968,2.614-1.545,3.535-2.695
		c17.295-21.637,31.11-45.244,44.361-69.286c15.341-27.829,23.268-57.589,28.705-88.219c0.481-2.718,0.353-4.598-2.759-5.663
		c-1.77-0.605-3.209-1.966-2.999-4.025c0.207-2.021,1.854-3.143,3.659-3.574c3.968-0.947,5.169-3.318,5.311-7.013
		c0.145-3.821,1.099-7.61,1.598-11.425c0.476-3.622,0.882-6.956-2.259-10.227c-3.031-3.156-2.038-8.23,1.666-11.166
		c2.24-1.776,2.847-3.72,2.869-6.245c0.051-6.009,0.45-11.995,2.081-17.864c1.713,5.072,1.235,10.201,1.405,15.279
		c0.126,3.643,0.732,6.699,4.113,9.27c3.853,2.929,3.972,7.808,0.55,11.602c-1.871,2.074-2.339,3.94-1.893,6.501
		c0.713,4.106,1.175,8.259,1.553,12.408c0.395,4.33,1.323,7.805,6.578,9.42c3.771,1.16,4.045,5.082,0.541,6.447
		c-4.739,1.845-3.754,4.786-3.271,8.135c5.465,38.195,19.679,73.416,39.569,106.774c10.155,17.03,20.924,33.653,33.395,49.243
		c1.277,1.595,1.79,2.528,4.903,1.619c6.195-1.809,12.98-0.811,19.521-0.465c1.552,0.082,2.269,1.367,2.282,2.758
		c0.043,4.648-0.006,9.296-0.023,13.944c-0.001,0.159-0.008,0.436-0.081,0.459c-4.796,1.507-4.964,7.454-9.451,9.068
		c-2.077,0.747-2.49,1.961-2.447,3.628c0.08,3.141-1.576,4.348-4.697,4.083c-3.043-0.259-4.387,0.996-4.015,3.947
		c0.179,1.418,0.442,3.391-1.559,3.511c-4.691,0.283-4.098,3.379-4.099,6.228c-0.012,29.51,0.04,59.021-0.064,88.532
		c-0.011,3.59,1.011,6.411,3.488,9.14c5.717,6.292,11.146,12.821,16.691,19.253c1.48,1.714,2.493,3.289-0.845,4.161
		c-2.185,0.57-1.931,2.41-1.933,3.97c-0.027,17.963,0.059,35.926-0.086,53.889c-0.026,3.492,2.081,5.159,4.608,6.861
		c21.567,14.532,43.122,29.083,64.684,43.624c36.807,24.822,73.613,49.642,110.418,74.462c9.467,6.385,18.862,12.869,28.434,19.105
		c2.984,1.942,4.304,4.177,4.11,7.588c-0.218,3.838-0.026,7.695-0.077,11.544c-0.014,1.087,0.202,2.376-0.968,3.07
		c-1.51,0.895-2.494-0.35-3.542-1.057c-27.603-18.621-55.188-37.264-82.792-55.879c-40.1-27.039-80.21-54.063-120.333-81.077
		c-1.051-0.708-2.038-2.189-3.427-1.602c-1.719,0.725-1.001,2.555-1.008,3.901c-0.055,12.029-0.014,24.058-0.053,36.087
		c-0.008,2.688,0.448,5.843-3.854,5.987c-3.787,0.127-7.294,0.783-9.049-4.374c-11.915-34.978-42.867-58.857-79.259-61.637
		c-42.536-3.249-80.772,20.922-94.646,59.992c-1.372,3.861-2.756,6.534-7.863,6.221c-4.126-0.253-5.619-1.675-5.572-5.543
		c0.142-11.867,0.076-23.736,0.009-35.604c-0.01-1.685,0.895-4.001-0.86-4.915c-1.804-0.94-3.295,1.105-4.724,2.069
		c-44.48,30.019-88.912,60.102-133.385,90.129c-22.784,15.385-45.629,30.688-68.463,46.004c-1.04,0.697-1.979,2.056-3.502,1.361
		c-1.495-0.683-1.038-2.201-1.167-3.434c-0.016-0.159-0.002-0.321-0.008-0.48C-6.139,654.065-6.244,650.234-4.511,647.138
		 M307.535,62.988l0.063-0.063c-0.368,0.003-0.735,0.006-1.104,0.008c-3.396,1.828-2.09,4.812-1.922,7.52
		c2.057,3.234,4.95,1.882,7.693,1.346c0.134-0.133,0.268-0.265,0.4-0.398c1.76-2.233,2.077-4.655,0.992-7.261
		c-0.816-0.362-1.632-0.724-2.447-1.085c-0.248-0.035-0.496-0.072-0.742-0.115c-0.723-0.266-1.444-0.533-2.166-0.799
		C308.046,62.424,307.791,62.706,307.535,62.988z M266.272,411.348c0.282-1.405,0.808-2.81,0.811-4.215
		c0.059-24.022,0.06-48.045,0.055-72.068c0-2.418-0.504-4.667-3.473-6.04c4.002,6.434,1.64,13.171,1.65,19.776
		c0.033,19.699-0.013,39.398-0.03,59.097c-0.001,1.241-0.464,2.614,1.047,3.408c-0.641,1.525-2.036,1.335-3.328,1.428
		c-8.813,0.635-17.602,0.855-26.416-0.285c-2.903-0.377-3.788-1.293-3.776-4.174c0.116-28.681,0.072-57.361,0.102-86.042
		c0.007-5.826,0.367-6.147,6.51-6.176c7.881-0.035,15.763-0.008,23.644-0.008c-8.973-0.946-17.938-0.826-26.898-1.003
		c-3.908-0.076-5.169,1.493-5.058,5.15c0.19,6.243,0.048,12.496,0.048,18.744c-0.001,23.233-0.003,46.466,0.005,69.699
		c0,2.567-0.42,5.349,3.679,5.325c9.65-0.056,19.301,0.026,28.95-0.031C265.314,413.926,267.533,414.115,266.272,411.348z
		 M314.4,337.099c7.194,1.868,10.717,7.011,12.773,13.434c0.831,2.595,1.595,5.232,2.099,7.903
		c1.846,9.775,3.189,19.688,10.432,27.525c1.558,1.685,1.046,3.6-0.5,5.184c-1.632,1.673-3.702,2.574-5.947,3.195
		c-12.05,3.333-24.216,3.374-36.448,1.223c-5.635-0.991-11.327-1.923-16.167-5.244c-2.272-1.559-4.597-3.907-2.145-6.315
		c8.024-7.883,9.888-18.133,12.491-28.237c1.851-7.185,4.792-13.92,13.209-18.551c-11.071,0-20.658-0.001-30.245,0
		c-2.817,0-3.572,1.666-3.57,4.088c0.021,22.924,0.038,45.849-0.007,68.773c-0.006,2.893,1.271,3.971,4.147,3.965
		c22.747-0.051,45.495-0.05,68.241-0.02c2.653,0.004,3.885-1.018,3.881-3.693c-0.033-23.244-0.027-46.489-0.005-69.734
		c0.003-2.813-1.041-3.975-4.151-3.758C333.194,337.483,323.881,337.346,314.4,337.099z M308.672,314.461
		c-9.809,0-19.618-0.025-29.427,0.008c-9.622,0.032-8.583-1.038-8.971,8.859c-0.197,5.003,1.683,6.232,6.507,6.178
		c20.073-0.223,40.15-0.058,60.226-0.11c10.72-0.027,9.377,1.086,9.721-9.609c0.139-4.318-1.48-5.496-5.689-5.403
		C330.255,314.623,319.462,314.464,308.672,314.461z M396.333,566.054c0.616,2.498,2.251,3.247,4.426,2.649
		c2.666-0.734,1.882-3.098,1.884-4.871c0.045-38.961-0.041-77.922,0.137-116.884c0.021-4.717-1.87-5.524-6.082-5.519
		c-58.759,0.097-117.518,0.108-176.277-0.029c-4.71-0.012-6.202,1.349-6.144,5.99c0.232,18.436,0.097,36.875,0.097,55.314
		c0,5.399,0,10.801,0,16.202c0.296,0.003,0.593,0.007,0.888,0.012c0-1.729,0-3.458,0-5.188c0.001-21.806,0.089-43.611-0.073-65.415
		c-0.033-4.451,1.259-6.255,6.102-6.244c56.14,0.123,112.28,0.057,168.421,0.1c10.722,0.008,12.066,1.256,12.087,11.47
		c0.071,36.557,0.036,73.111,0.019,109.668C401.814,567.269,400.296,568.042,396.333,566.054z M219.775,303.015
		c-1.584-1.207-0.333-2.815-1.943-3.273c-0.75,1.527-0.915,2.909,0.529,3.929c0.722,0.51,1.774,0.287,2.186-0.44
		c1.848-3.249,4.991-2.555,7.852-2.556c54.847-0.021,109.694-0.009,164.54-0.042c1.863-0.002,3.84,0.519,5.848-0.675
		c-2.89-1.027-5.66-0.844-8.396-0.845c-28.979-0.013-57.958-0.009-86.937-0.008c-25.868,0-51.736-0.008-77.604,0.019
		C223.148,299.125,219.891,298.36,219.775,303.015z M350.82,314.571c-0.568,1.52-0.855,1.929-0.856,2.339
		c-0.031,30.953-0.022,61.906-0.077,92.859c-0.006,3.073,1.279,4.292,4.414,4.254c8.513-0.104,17.034-0.254,25.536,0.055
		c4.688,0.17,6.182-1.294,6.151-5.973c-0.195-29.348-0.099-58.699-0.102-88.048c-0.001-1.122,0.013-2.248-0.073-3.365
		c-0.114-1.497-1.108-1.939-2.405-1.493c-1.429,0.493-0.839,1.471-0.305,2.292c1.423,2.191,1.072,4.644,1.08,7.026
		c0.083,28.225,0.083,56.45,0.281,84.673c0.024,3.651-2.107,3.916-4.676,3.943c-7.203,0.077-14.406,0.053-21.61,0.052
		c-7.294,0-7.339-0.009-7.347-7.219c-0.024-21.651-0.011-43.303-0.012-64.954C350.82,332.587,350.82,324.16,350.82,314.571z
		 M397.912,437.811c-0.001-0.225-0.002-0.448-0.003-0.672c-61.156,0-122.315,0-183.473,0c0.001,0.224,0.002,0.447,0.003,0.672
		C275.597,437.811,336.755,437.811,397.912,437.811z M222.191,295.563c-0.068,0.179-0.137,0.356-0.205,0.534
		c59.394,0,118.789,0,178.184,0c0-0.178,0-0.355-0.001-0.534C340.844,295.563,281.517,295.563,222.191,295.563z M388.746,303.988
		c-0.06-0.167-0.118-0.332-0.178-0.499c-55.032,0-110.064,0-165.098,0c0,0.167,0,0.332,0,0.499
		C278.563,303.988,333.654,303.988,388.746,303.988z M304.283,347.917c-1.762,1.218-2.09,3.206-2.569,5.186
		c-1.493,6.179-3.014,12.354-4.657,18.497c-0.554,2.076-2.49,4.501,0.687,5.678c3.419,1.268,4.248-2.034,5.498-4.097
		c0.45-0.742,0.279-1.862,0.337-2.813c0.408-6.777-0.987-13.703,1.813-20.29C305.677,349.408,305.533,348.488,304.283,347.917z
		 M388.653,418.342c0.022-0.207,0.047-0.415,0.069-0.623c-39.006,0-78.012,0-117.018,0c-0.001,0.208-0.002,0.416-0.003,0.623
		C310.686,418.342,349.67,418.342,388.653,418.342z M264.758,311.853c0.006-0.495,0.01-0.99,0.016-1.486
		c-11.509,0-23.017-0.021-34.526,0.03c-1.204,0.005-2.759,1.337-3.466-0.304c-0.863-2.003,2.682-0.556,2.464-2.502
		c-1.564-0.264-3.41-1.403-3.842,1.24c-0.322,1.972,0.702,3.022,2.771,3.022C240.369,311.853,252.564,311.853,264.758,311.853z"/>
	<path fill-rule="evenodd" clip-rule="evenodd" fill="none" d="M314.4,337.099c9.48,0.248,18.794,0.385,28.088-0.263
		c3.11-0.217,4.154,0.944,4.151,3.758c-0.022,23.245-0.028,46.49,0.005,69.734c0.004,2.676-1.228,3.697-3.881,3.693
		c-22.746-0.03-45.495-0.031-68.241,0.02c-2.876,0.006-4.153-1.072-4.147-3.965c0.045-22.925,0.028-45.849,0.007-68.773
		c-0.002-2.423,0.753-4.088,3.57-4.088c9.587-0.001,19.174,0,30.245,0c-8.417,4.63-11.359,11.366-13.209,18.551
		c-2.603,10.104-4.467,20.354-12.491,28.237c-2.452,2.408-0.127,4.756,2.145,6.315c4.84,3.321,10.532,4.253,16.167,5.244
		c12.232,2.151,24.398,2.11,36.448-1.223c2.245-0.621,4.315-1.522,5.947-3.195c1.546-1.583,2.058-3.499,0.5-5.184
		c-7.242-7.836-8.586-17.75-10.432-27.525c-0.504-2.671-1.268-5.308-2.099-7.903C325.117,344.11,321.595,338.966,314.4,337.099z"/>
	<path fill-rule="evenodd" clip-rule="evenodd" fill="none" d="M308.672,314.462c10.79,0.002,21.583,0.161,32.367-0.078
		c4.209-0.093,5.828,1.085,5.689,5.403c-0.344,10.696,0.999,9.582-9.721,9.609c-20.076,0.052-40.153-0.113-60.226,0.11
		c-4.825,0.054-6.704-1.175-6.507-6.178c0.388-9.897-0.651-8.828,8.971-8.859C289.054,314.436,298.863,314.461,308.672,314.462z"/>
	<path fill-rule="evenodd" clip-rule="evenodd" fill="none" d="M396.333,566.054c3.963,1.988,5.481,1.215,5.483-2.744
		c0.018-36.557,0.053-73.111-0.019-109.668c-0.021-10.214-1.365-11.462-12.087-11.47c-56.141-0.043-112.281,0.023-168.421-0.1
		c-4.843-0.011-6.134,1.793-6.102,6.244c0.162,21.804,0.074,43.609,0.073,65.415c0,1.729,0,3.458,0,5.188
		c-0.295-0.005-0.592-0.009-0.888-0.012c0-5.401,0-10.803,0-16.202c0-18.439,0.135-36.879-0.097-55.314
		c-0.058-4.642,1.434-6.002,6.144-5.99c58.759,0.138,117.519,0.126,176.277,0.029c4.212-0.006,6.104,0.802,6.082,5.519
		c-0.178,38.962-0.092,77.923-0.137,116.884c-0.002,1.773,0.782,4.137-1.884,4.871C398.584,569.301,396.949,568.552,396.333,566.054
		z"/>
	<path fill-rule="evenodd" clip-rule="evenodd" fill="none" d="M219.775,303.015c0.115-4.654,3.373-3.889,6.074-3.892
		c25.868-0.027,51.736-0.019,77.604-0.019c28.979-0.001,57.957-0.005,86.937,0.008c2.736,0.001,5.507-0.182,8.396,0.845
		c-2.008,1.194-3.984,0.673-5.848,0.675c-54.846,0.033-109.692,0.021-164.54,0.042c-2.861,0.001-6.003-0.693-7.852,2.556
		c-0.412,0.727-1.464,0.95-2.186,0.44c-1.444-1.021-1.279-2.402-0.529-3.929C219.442,300.2,218.191,301.808,219.775,303.015z"/>
	<path fill-rule="evenodd" clip-rule="evenodd" fill="none" d="M350.82,314.571c0,9.588,0,18.016,0,26.443
		c0.001,21.651-0.013,43.303,0.012,64.954c0.008,7.21,0.053,7.219,7.347,7.219c7.204,0.001,14.407,0.025,21.61-0.052
		c2.568-0.027,4.7-0.292,4.676-3.943c-0.198-28.224-0.198-56.449-0.281-84.673c-0.008-2.382,0.343-4.834-1.08-7.026
		c-0.534-0.822-1.124-1.8,0.305-2.292c1.297-0.446,2.291-0.004,2.405,1.493c0.086,1.117,0.072,2.243,0.073,3.365
		c0.003,29.349-0.094,58.7,0.102,88.048c0.03,4.679-1.463,6.143-6.151,5.973c-8.502-0.309-17.023-0.158-25.536-0.055
		c-3.135,0.038-4.42-1.181-4.414-4.254c0.055-30.953,0.046-61.906,0.077-92.859C349.965,316.5,350.252,316.091,350.82,314.571z"/>
	<path fill-rule="evenodd" clip-rule="evenodd" fill="none" d="M266.272,411.348c1.261,2.768-0.958,2.578-2.478,2.586
		c-9.649,0.058-19.3-0.024-28.95,0.031c-4.1,0.023-3.679-2.758-3.679-5.325c-0.008-23.232-0.006-46.465-0.005-69.699
		c0-6.249,0.142-12.501-0.048-18.744c-0.111-3.658,1.149-5.226,5.058-5.15c8.96,0.177,17.925,0.057,26.898,1.003
		c-7.881,0-15.763-0.026-23.644,0.008c-6.143,0.028-6.503,0.35-6.51,6.176c-0.03,28.681,0.014,57.361-0.102,86.042
		c-0.012,2.881,0.873,3.797,3.776,4.174c8.814,1.141,17.603,0.92,26.416,0.285c1.292-0.093,2.688,0.098,3.328-1.428L266.272,411.348
		z"/>
	<path fill-rule="evenodd" clip-rule="evenodd" fill="none" d="M397.912,437.811c-61.157,0-122.315,0-183.473,0
		c-0.001-0.225-0.002-0.448-0.003-0.672c61.157,0,122.316,0,183.473,0C397.91,437.362,397.911,437.586,397.912,437.811z"/>
	<path fill-rule="evenodd" clip-rule="evenodd" fill="none" d="M222.191,295.563c59.326,0,118.653,0,177.978,0
		c0.001,0.179,0.001,0.356,0.001,0.534c-59.396,0-118.79,0-178.184,0C222.054,295.919,222.123,295.741,222.191,295.563z"/>
	<path fill-rule="evenodd" clip-rule="evenodd" fill="none" d="M388.746,303.988c-55.092,0-110.183,0-165.275,0
		c0-0.167,0-0.332,0-0.499c55.033,0,110.065,0,165.098,0C388.628,303.656,388.687,303.822,388.746,303.988z"/>
	<path fill-rule="evenodd" clip-rule="evenodd" fill="none" d="M266.332,411.307c-1.512-0.794-1.048-2.167-1.047-3.408
		c0.017-19.699,0.063-39.398,0.03-59.097c-0.01-6.605,2.353-13.342-1.65-19.776c2.969,1.373,3.473,3.621,3.473,6.04
		c0.005,24.023,0.004,48.046-0.055,72.068c-0.003,1.405-0.529,2.81-0.811,4.215L266.332,411.307z"/>
	<path fill-rule="evenodd" clip-rule="evenodd" fill="none" d="M388.653,418.342c-38.983,0-77.968,0-116.952,0
		c0.001-0.207,0.002-0.415,0.003-0.623c39.006,0,78.012,0,117.018,0C388.7,417.927,388.676,418.135,388.653,418.342z"/>
	<path fill-rule="evenodd" clip-rule="evenodd" fill="none" d="M264.758,311.853c-12.194,0-24.389,0-36.583,0
		c-2.069,0-3.093-1.05-2.771-3.022c0.433-2.643,2.278-1.504,3.842-1.24c0.218,1.946-3.327,0.499-2.464,2.502
		c0.707,1.641,2.262,0.309,3.466,0.304c11.509-0.051,23.017-0.03,34.526-0.03C264.768,310.863,264.764,311.358,264.758,311.853z"/>
	<path fill-rule="evenodd" clip-rule="evenodd" d="M308.303,62.142c0.722,0.266,1.443,0.533,2.166,0.799l0.355,0.185l0.387-0.07
		c0.815,0.362,1.631,0.724,2.446,1.083c-0.479,2.167-0.624,4.517-3.153,5.571l0.035-0.035c-1.629,2.927-3.879,1.244-5.968,0.773
		c-0.167-2.704-1.474-5.688,1.925-7.515c0.364,0.318,0.727,0.637,1.09,0.957l-0.04,0.04c0.018-0.334,0.034-0.67,0.052-1.005
		l-0.063,0.063C307.791,62.705,308.047,62.423,308.303,62.142z"/>
	<path fill-rule="evenodd" clip-rule="evenodd" fill="none" d="M310.504,69.71c2.529-1.055,2.674-3.404,3.153-5.571
		c1.086,2.608,0.769,5.03-0.991,7.264c-0.002,0.001-0.383,0.021-0.383,0.021l-0.018,0.376c-2.743,0.536-5.637,1.888-7.693-1.349
		c2.088,0.469,4.338,2.152,5.967-0.775L310.504,69.71z"/>
	<path fill-rule="evenodd" clip-rule="evenodd" fill="none" d="M311.211,63.056l-0.387,0.07l-0.355-0.185
		C310.715,62.983,310.963,63.021,311.211,63.056z"/>
	<path fill-rule="evenodd" clip-rule="evenodd" fill="none" d="M307.598,62.926c-0.018,0.335-0.034,0.67-0.052,1.005l0.04-0.04
		c-0.363-0.319-0.726-0.638-1.09-0.957C306.862,62.932,307.229,62.929,307.598,62.926z"/>
	<path fill-rule="evenodd" clip-rule="evenodd" fill="none" d="M308.303,62.142c-0.256,0.281-0.512,0.563-0.768,0.846
		C307.791,62.706,308.046,62.424,308.303,62.142z"/>
	<path fill-rule="evenodd" clip-rule="evenodd" fill="none" d="M307.546,63.931l0.04-0.04L307.546,63.931z"/>
	<path fill-rule="evenodd" clip-rule="evenodd" fill="none" d="M310.539,69.676l-0.035,0.035L310.539,69.676z"/>
	<path fill-rule="evenodd" clip-rule="evenodd" d="M312.266,71.8l0.018-0.376c0,0,0.381-0.02,0.383-0.021
		C312.533,71.535,312.399,71.667,312.266,71.8z"/>
</g>
</svg>
